<?xml version="1.0" standalone="no"?>
<!DOCTYPE svg PUBLIC "-//W3C//DTD SVG 20010904//EN"
 "http://www.w3.org/TR/2001/REC-SVG-20010904/DTD/svg10.dtd">
<svg version="1.0" xmlns="http://www.w3.org/2000/svg"
 width="700.000000pt" height="700.000000pt" viewBox="0 0 700.000000 700.000000"
 preserveAspectRatio="xMidYMid meet">
<metadata>
Created by potrace 1.14, written by Peter Selinger 2001-2017
</metadata>
<g transform="translate(0.000000,700.000000) scale(0.100000,-0.100000)"
fill="#000000" stroke="none">
<path d="M2930 4888 c-740 -1028 -1346 -1873 -1348 -1877 -1 -3 364 -5 812 -3
l813 4 -18 -108 c-116 -673 -439 -2619 -436 -2627 2 -6 600 831 1330 1859
l1328 1869 -811 3 c-491 1 -810 6 -810 11 0 6 110 623 245 1372 136 749 245
1363 243 1364 -2 2 -608 -838 -1348 -1867z"/>
</g>
</svg>
